<?plantuml 1.2026.1?><svg xmlns="http://www.w3.org/2000/svg" xmlns:xlink="http://www.w3.org/1999/xlink" contentStyleType="text/css" data-diagram-type="DESCRIPTION" height="723px" preserveAspectRatio="none" style="width:735px;height:723px;background:#FFFFFF;" version="1.1" viewBox="0 0 735 723" width="735px" zoomAndPan="magnify"><title>SaaS TESA - Component Diagram</title><defs/><g><g class="title" data-source-line="1"><text fill="#000000" font-family="sans-serif" font-size="14" font-weight="bold" lengthAdjust="spacing" textLength="261.4678" x="229.787" y="22.9951">SaaS TESA - Component Diagram</text></g><!--cluster Client/Edge--><g class="cluster" data-qualified-name="Client.Edge" data-source-line="7" id="ent0003"><path d="M8.5,182.0869 L99.7412,182.0869 A3.75,3.75 0 0 1 102.2412,184.5869 L109.2412,204.3837 L349.5,204.3837 A2.5,2.5 0 0 1 352,206.8837 L352,283.1869 A2.5,2.5 0 0 1 349.5,285.6869 L8.5,285.6869 A2.5,2.5 0 0 1 6,283.1869 L6,184.5869 A2.5,2.5 0 0 1 8.5,182.0869" fill="none" style="stroke:#000000;stroke-width:1.5;"/><line style="stroke:#000000;stroke-width:1.5;" x1="6" x2="109.2412" y1="204.3837" y2="204.3837"/><text fill="#000000" font-family="sans-serif" font-size="14" font-weight="bold" lengthAdjust="spacing" textLength="90.2412" x="10" y="197.082">Client/Edge</text></g><!--cluster Backend--><g class="cluster" data-qualified-name="Backend" data-source-line="12" id="ent0006"><path d="M47.5,349.6869 L115.7109,349.6869 A3.75,3.75 0 0 1 118.2109,352.1869 L125.2109,371.9838 L537.5,371.9838 A2.5,2.5 0 0 1 540,374.4838 L540,714.4669 A2.5,2.5 0 0 1 537.5,716.9669 L47.5,716.9669 A2.5,2.5 0 0 1 45,714.4669 L45,352.1869 A2.5,2.5 0 0 1 47.5,349.6869" fill="none" style="stroke:#000000;stroke-width:1.5;"/><line style="stroke:#000000;stroke-width:1.5;" x1="45" x2="125.2109" y1="371.9838" y2="371.9838"/><text fill="#000000" font-family="sans-serif" font-size="14" font-weight="bold" lengthAdjust="spacing" textLength="67.2109" x="49" y="364.682">Backend</text></g><!--entity agent--><g class="entity" data-qualified-name="Client.Edge.agent" data-source-line="8" id="ent0004"><rect fill="#F1F1F1" height="52.5938" rx="2.5" ry="2.5" style="stroke:#181818;stroke-width:0.5;" width="163.2676" x="22.37" y="217.0869"/><text fill="#000000" font-family="sans-serif" font-size="14" lengthAdjust="spacing" textLength="123.7373" x="32.37" y="240.082">Distributed Agent</text><text fill="#000000" font-family="sans-serif" font-size="14" lengthAdjust="spacing" textLength="143.2676" x="32.37" y="256.3789">(src/saastesa/agent)</text></g><!--entity frontend--><g class="entity" data-qualified-name="Client.Edge.frontend" data-source-line="9" id="ent0005"><rect fill="#F1F1F1" height="52.5938" rx="2.5" ry="2.5" style="stroke:#181818;stroke-width:0.5;" width="115.0264" x="220.49" y="217.0869"/><text fill="#000000" font-family="sans-serif" font-size="14" lengthAdjust="spacing" textLength="95.0264" x="230.49" y="240.082">Dashboard UI</text><text fill="#000000" font-family="sans-serif" font-size="14" lengthAdjust="spacing" textLength="70.9092" x="230.49" y="256.3789">(frontend)</text></g><!--entity api--><g class="entity" data-qualified-name="Backend.api" data-source-line="13" id="ent0007"><rect fill="#F1F1F1" height="52.5938" rx="2.5" ry="2.5" style="stroke:#181818;stroke-width:0.5;" width="205.5" x="137.25" y="384.6869"/><text fill="#000000" font-family="sans-serif" font-size="14" lengthAdjust="spacing" textLength="107.7549" x="147.25" y="407.682">FastAPI Service</text><text fill="#000000" font-family="sans-serif" font-size="14" lengthAdjust="spacing" textLength="185.5" x="147.25" y="423.9789">(src/saastesa/api/main.py)</text></g><!--entity pipeline--><g class="entity" data-qualified-name="Backend.pipeline" data-source-line="14" id="ent0008"><rect fill="#F1F1F1" height="52.5938" rx="2.5" ry="2.5" style="stroke:#181818;stroke-width:0.5;" width="185.6621" x="61.17" y="514.2769"/><text fill="#000000" font-family="sans-serif" font-size="14" lengthAdjust="spacing" textLength="117.2295" x="71.17" y="537.272">Analysis Pipeline</text><text fill="#000000" font-family="sans-serif" font-size="14" lengthAdjust="spacing" textLength="165.6621" x="71.17" y="553.5689">(src/saastesa/pipelines)</text></g><!--entity scoring--><g class="entity" data-qualified-name="Backend.scoring" data-source-line="15" id="ent0009"><rect fill="#F1F1F1" height="52.5938" rx="2.5" ry="2.5" style="stroke:#181818;stroke-width:0.5;" width="262.8057" x="60.6" y="648.3769"/><text fill="#000000" font-family="sans-serif" font-size="14" lengthAdjust="spacing" textLength="86.0234" x="70.6" y="671.372">Risk Scoring</text><text fill="#000000" font-family="sans-serif" font-size="14" lengthAdjust="spacing" textLength="242.8057" x="70.6" y="687.6689">(src/saastesa/core/risk_scoring.py)</text></g><!--entity repo--><g class="entity" data-qualified-name="Backend.repo" data-source-line="16" id="ent0010"><rect fill="#F1F1F1" height="52.5938" rx="2.5" ry="2.5" style="stroke:#181818;stroke-width:0.5;" width="241.6211" x="282.19" y="514.2769"/><text fill="#000000" font-family="sans-serif" font-size="14" lengthAdjust="spacing" textLength="167.8018" x="292.19" y="537.272">SQLAlchemy Repository</text><text fill="#000000" font-family="sans-serif" font-size="14" lengthAdjust="spacing" textLength="221.6211" x="292.19" y="553.5689">(src/saastesa/api/repository.py)</text></g><!--entity user--><g class="entity" data-qualified-name="user" data-source-line="5" id="ent0002"><ellipse cx="277.9955" cy="51.2969" fill="#F1F1F1" rx="8" ry="8" style="stroke:#181818;stroke-width:0.5;"/><path d="M277.9955,59.2969 L277.9955,86.2969 M264.9955,67.2969 L290.9955,67.2969 M277.9955,86.2969 L264.9955,101.2969 M277.9955,86.2969 L290.9955,101.2969" fill="none" style="stroke:#181818;stroke-width:0.5;"/><text fill="#000000" font-family="sans-serif" font-size="14" lengthAdjust="spacing" textLength="124.291" x="215.85" y="115.792">Security Engineer</text></g><!--entity db--><g class="entity" data-qualified-name="db" data-source-line="19" id="ent0011"><path d="M555.95,653.8769 C555.95,643.8769 636.9959,643.8769 636.9959,643.8769 C636.9959,643.8769 718.0418,643.8769 718.0418,653.8769 L718.0418,695.4706 C718.0418,705.4706 636.9959,705.4706 636.9959,705.4706 C636.9959,705.4706 555.95,705.4706 555.95,695.4706 L555.95,653.8769" fill="#F1F1F1" style="stroke:#181818;stroke-width:0.5;"/><path d="M555.95,653.8769 C555.95,663.8769 636.9959,663.8769 636.9959,663.8769 C636.9959,663.8769 718.0418,663.8769 718.0418,653.8769" fill="none" style="stroke:#181818;stroke-width:0.5;"/><text fill="#000000" font-family="sans-serif" font-size="14" lengthAdjust="spacing" textLength="94.9307" x="565.95" y="680.872">Relational DB</text><text fill="#000000" font-family="sans-serif" font-size="14" lengthAdjust="spacing" textLength="142.0918" x="565.95" y="697.1689">(SQLite/PostgreSQL)</text></g><!--link user to frontend--><g class="link" data-entity-1="ent0002" data-entity-2="ent0005" data-link-type="dependency" data-source-line="21" id="lnk12"><path d="M278,119.5569 C278,149.5669 278,184.7869 278,211.0069" fill="none" id="user-to-frontend" style="stroke:#181818;stroke-width:1;"/><polygon fill="#181818" points="278,217.0069,282,208.0069,278,212.0069,274,208.0069,278,217.0069" style="stroke:#181818;stroke-width:1;"/><text fill="#000000" font-family="sans-serif" font-size="13" lengthAdjust="spacing" textLength="168.8096" x="279" y="162.1538">views summaries/findings</text></g><!--link frontend to api--><g class="link" data-entity-1="ent0005" data-entity-2="ent0007" data-link-type="dependency" data-source-line="22" id="lnk13"><path d="M272.15,269.8969 C265,301.0169 254.3409,347.4586 247.2009,378.5986" fill="none" id="frontend-to-api" style="stroke:#181818;stroke-width:1;"/><polygon fill="#181818" points="245.86,384.4469,251.7702,376.5685,246.9774,379.5733,243.9726,374.7806,245.86,384.4469" style="stroke:#181818;stroke-width:1;"/><text fill="#000000" font-family="sans-serif" font-size="13" lengthAdjust="spacing" textLength="140.6387" x="265.62" y="314.7538">GET /api/v1/summary</text><text fill="#000000" font-family="sans-serif" font-size="13" lengthAdjust="spacing" textLength="130.8506" x="270.514" y="329.8866">GET /api/v1/findings</text></g><!--link agent to api--><g class="link" data-entity-1="ent0004" data-entity-2="ent0007" data-link-type="dependency" data-source-line="24" id="lnk14"><path d="M101.83,269.8669 C101.46,288.9069 103.72,314.7969 116,333.6869 C130.19,355.5169 147.7556,369.2667 169.9956,381.3267" fill="none" id="agent-to-api" style="stroke:#181818;stroke-width:1;"/><polygon fill="#181818" points="175.27,384.1869,169.2651,376.3804,170.8746,381.8034,165.4516,383.4129,175.27,384.1869" style="stroke:#181818;stroke-width:1;"/><text fill="#000000" font-family="sans-serif" font-size="13" lengthAdjust="spacing" textLength="132.5581" x="117" y="322.2538">POST /api/v1/signals</text></g><!--link api to pipeline--><g class="link" data-entity-1="ent0007" data-entity-2="ent0008" data-link-type="dependency" data-source-line="25" id="lnk15"><path d="M179.84,437.6269 C168.29,445.4169 157.72,455.1969 151,467.2769 C143.19,481.3369 142.846,493.5075 145.546,508.0675" fill="none" id="api-to-pipeline" style="stroke:#181818;stroke-width:1;"/><polygon fill="#181818" points="146.64,513.9669,148.932,504.3884,145.7283,509.0507,141.0661,505.8471,146.64,513.9669" style="stroke:#181818;stroke-width:1;"/><text fill="#000000" font-family="sans-serif" font-size="13" lengthAdjust="spacing" textLength="157.3965" x="152" y="480.3438">analyze_signals(signals)</text></g><!--link pipeline to scoring--><g class="link" data-entity-1="ent0008" data-entity-2="ent0009" data-link-type="dependency" data-source-line="26" id="lnk16"><path d="M161.42,567.3569 C168.11,590.6369 176.2515,618.9306 182.9415,642.1906" fill="none" id="pipeline-to-scoring" style="stroke:#181818;stroke-width:1;"/><polygon fill="#181818" points="184.6,647.9569,185.9564,638.2019,183.2179,643.1517,178.2681,640.4132,184.6,647.9569" style="stroke:#181818;stroke-width:1;"/><text fill="#000000" font-family="sans-serif" font-size="13" lengthAdjust="spacing" textLength="131.8472" x="175.14" y="609.9438">build_finding(signal)</text></g><!--link api to repo--><g class="link" data-entity-1="ent0007" data-entity-2="ent0010" data-link-type="dependency" data-source-line="27" id="lnk17"><path d="M274.85,437.5769 C287.29,446.8269 301.35,457.4169 314,467.2769 C333.47,482.4569 350.3239,496.0781 367.3039,510.0281" fill="none" id="api-to-repo" style="stroke:#181818;stroke-width:1;"/><polygon fill="#181818" points="371.94,513.8369,367.5251,505.033,368.0766,510.6629,362.4467,511.2144,371.94,513.8369" style="stroke:#181818;stroke-width:1;"/><text fill="#000000" font-family="sans-serif" font-size="13" lengthAdjust="spacing" textLength="169.603" x="334.72" y="480.3438">add/findings/list/summary</text></g><!--link repo to db--><g class="link" data-entity-1="ent0010" data-entity-2="ent0011" data-link-type="dependency" data-source-line="28" id="lnk18"><path d="M448.67,567.3569 C487.38,589.2069 537.6946,617.6181 578.4346,640.6081" fill="none" id="repo-to-db" style="stroke:#181818;stroke-width:1;"/><polygon fill="#181818" points="583.66,643.5569,577.7877,635.6501,579.3055,641.0996,573.8561,642.6174,583.66,643.5569" style="stroke:#181818;stroke-width:1;"/><text fill="#000000" font-family="sans-serif" font-size="13" lengthAdjust="spacing" textLength="101.2388" x="528.02" y="609.9438">ORM read/write</text></g><?plantuml-src RLB1Rjim3BthAuYScaCcxBh30BV9XW8RciNTQHi2sc9T8hPiY78ARzY_Zt9i8sXtaaY-z_X4AdAi2NB471vtUGORk6kRhlNa8smPgu2DCN9Ytw5UePoBUHoK5wYCwAkQZC4ojW5MEPLzu3Z0pbViYS8AKA0N2iPqM9wm8bZTrQmITkSgMi4V0_1Zon835tqa1rcbnP_-Ha9f1L4Y2LfCoVMl93PUHnBASz5YSF3zNl5FeVMHlBkWviZylMfygnVDJKq_gNQsluUSmfbBUjEoOziW-tVTC3NkED4oZ_KWBB3dZcfzv6jYD-NbGfl3n3smd20lsy2-UatJBDcWWADS04lZAKu2-RSlMLq-KpF0WRfMMAS-_CzvMAgBJ4gbSJYCMA3eF0vKO-HM7mJRMrLHTOvazwt4Af16wt5zhZ0chH0scu_BOE43d9bUr5tVD1YOn3wnT-fJp89917MZsC-xHnYDdT_R2qDjNoSNiXaNV4NTF-HNNAxKhfXKIf1vkeh3j9ZVT9mWDzEvDWic4QPXAhxekNR7gU-4NY_2QLf9rBd5cgtrcyxkpGX8I5Sexk7mLIdex8j-VpB_0000?></g></svg>