<?plantuml 1.2026.1?><svg xmlns="http://www.w3.org/2000/svg" xmlns:xlink="http://www.w3.org/1999/xlink" contentStyleType="text/css" data-diagram-type="DESCRIPTION" height="541px" preserveAspectRatio="none" style="width:852px;height:541px;background:#FFFFFF;" version="1.1" viewBox="0 0 852 541" width="852px" zoomAndPan="magnify"><title>SaaS TESA - Deployment Diagram</title><defs/><g><g class="title" data-source-line="1"><text fill="#000000" font-family="sans-serif" font-size="14" font-weight="bold" lengthAdjust="spacing" textLength="266.6494" x="285.9514" y="22.9951">SaaS TESA - Deployment Diagram</text></g><!--cluster Engineer Workstation--><g class="cluster" data-qualified-name="Engineer Workstation" data-source-line="5" id="ent0002"><polygon fill="none" points="16,53.2969,26,43.2969,462,43.2969,462,514.6369,452,524.6369,16,524.6369,16,53.2969" style="stroke:#181818;stroke-width:1;"/><line style="stroke:#181818;stroke-width:1;" x1="452" x2="462" y1="53.2969" y2="43.2969"/><line style="stroke:#181818;stroke-width:1;" x1="16" x2="452" y1="53.2969" y2="53.2969"/><line style="stroke:#181818;stroke-width:1;" x1="452" x2="452" y1="53.2969" y2="524.6369"/><text fill="#000000" font-family="sans-serif" font-size="14" font-weight="bold" lengthAdjust="spacing" textLength="171.9102" x="149.0449" y="69.292">Engineer Workstation</text></g><!--cluster Python Runtime--><g class="cluster" data-qualified-name="Engineer Workstation.Python Runtime" data-source-line="6" id="ent0003"><polygon fill="none" points="40,109.4469,50,99.4469,242,99.4469,242,345.3369,232,355.3369,40,355.3369,40,109.4469" style="stroke:#181818;stroke-width:1;"/><line style="stroke:#181818;stroke-width:1;" x1="232" x2="242" y1="109.4469" y2="99.4469"/><line style="stroke:#181818;stroke-width:1;" x1="40" x2="232" y1="109.4469" y2="109.4469"/><line style="stroke:#181818;stroke-width:1;" x1="232" x2="232" y1="109.4469" y2="355.3369"/><text fill="#000000" font-family="sans-serif" font-size="14" font-weight="bold" lengthAdjust="spacing" textLength="126.793" x="73.6035" y="125.442">Python Runtime</text></g><!--cluster Browser--><g class="cluster" data-qualified-name="Engineer Workstation.Browser" data-source-line="11" id="ent0006"><polygon fill="none" points="266,101.2969,276,91.2969,438,91.2969,438,192.8969,428,202.8969,266,202.8969,266,101.2969" style="stroke:#181818;stroke-width:1;"/><line style="stroke:#181818;stroke-width:1;" x1="428" x2="438" y1="101.2969" y2="91.2969"/><line style="stroke:#181818;stroke-width:1;" x1="266" x2="428" y1="101.2969" y2="101.2969"/><line style="stroke:#181818;stroke-width:1;" x1="428" x2="428" y1="101.2969" y2="202.8969"/><text fill="#000000" font-family="sans-serif" font-size="14" font-weight="bold" lengthAdjust="spacing" textLength="64.8594" x="315.5703" y="117.292">Browser</text></g><!--cluster Vercel--><g class="cluster" data-qualified-name="Vercel" data-source-line="18" id="ent0009"><path d="M504.6319,68.0963 C509.9895,59.0134 519.0925,57.1317 525.9629,66.3313 C531.8007,56.9419 540.0471,56.5954 546.4236,65.7365 C552.0379,54.9439 562.4426,52.7556 570.5193,62.9029 C577.4978,52.6502 585.2458,54.5699 591.4559,63.7316 C596.4399,54.2414 605.6651,52.2027 612.3302,61.9028 C618.3872,50.296 630.3951,49.3199 636.5263,61.8284 C643.6572,53.2008 650.492,51.157 657.8001,61.631 C663.6897,50.2252 674.1457,49.9372 681.7479,59.6929 C688.2765,51.0898 696.7526,49.3752 702.9472,60.06 C710.2138,48.9531 720.7846,51.7418 725.7927,62.4276 C733.6176,52.9083 741.9062,54.85 747.8874,64.5474 C754.5073,52.5339 761.3272,54.3959 769.6284,62.7531 C777.9923,54.2505 786.4341,54.753 791.6056,66.2595 C802.8881,53.3494 812.6221,58.4559 819,71.4469 C820.7262,72.0305 821.3647,73.1684 820.1554,74.7721 C831.8322,80.8185 832.3892,87.5969 823.5661,96.8152 C835.6141,103.7142 833.4398,114.6381 823.1392,121.145 C834.7347,126.8927 836.679,136.8343 826.6079,145.649 C837.5381,152.6768 837.5633,162.014 826.8422,169.2567 C838.8046,174.3488 842.1021,185.6509 830.3597,194.0993 C840.3371,198.4251 840.3097,208.5432 832.4266,214.664 C845.5521,226.1427 841.6205,235.4547 827.2106,241.6018 C837.0655,247.7448 837.0379,258.0495 827.0745,264.0724 C837.9976,272.0567 836.5418,280.5138 824.4033,285.6422 C837.0437,294.1782 836.4807,303.4987 823.5561,311.1868 C834.5337,318.8498 832.9056,326.1473 823.6101,333.8585 C833.3194,346.6806 827.8172,360.4699 812,363.1869 C813.7399,364.4171 813.7407,365.8721 812.0351,367.133 C804.8122,377.298 797.9243,377.2631 790.3044,367.5674 C784.9273,378.1038 778.8167,378.9925 771.3319,369.5711 C763.5139,378.3655 755.1445,377.9541 748.4304,368.2076 C743.0069,380.3376 733.312,379.2173 726.4375,369.6804 C719.8822,381.9184 710.0538,382.051 701.0293,372.569 C694.0279,381.3101 688.3689,379.9643 682.8884,371.0098 C676.8327,383.2272 668.8582,384.8081 659.1654,374.9116 C650.8958,384.3018 639.3877,383.6991 635.3003,370.4944 C629.31,379.7566 620.7566,377.775 616.0344,369.13 C609.4436,380.7383 600.4439,379.9358 593.9781,369.0076 C585.0852,381.7223 577.1965,381.2968 568.4068,368.9025 C561.9712,377.1243 553.0406,377.5026 548.2546,367.1161 C541.2469,378.4575 531.3806,378.4699 524.8973,366.5887 C509.4612,379.5364 498.297,376.3263 494,356.1869 C494.8409,355.1742 496.0158,355.0277 496.6414,356.4231 C487.1819,351.6853 485.9885,342.8498 495.1146,336.675 C482.0699,330.7546 479.5385,323.1004 490.0977,312.3182 C476.4551,305.6322 479.5006,294.1914 489.8699,287.2868 C477.8296,282.0269 475.7559,274.0994 486.337,265.2181 C473.0892,257.4445 473.2899,248.0966 485.9348,239.9116 C473.0702,234.0541 472.5968,221.7749 484.134,214.2079 C472.1246,206.8551 474.1363,195.9947 486.4164,191.0341 C474.4189,183.1831 477.6123,175.0756 487.5183,168.2856 C477.4727,159.7419 479.7718,148.413 491.2066,143.003 C479.5685,136.529 480.6167,129.2013 490.0017,121.5468 C480.4715,111.9664 483.1928,102.0591 494.9641,96.7399 C483.2546,85.7647 484.0304,70.0616 501,64.4469 C503.6545,63.761 505.4521,65.3242 504.6319,68.0963" fill="none" style="stroke:#181818;stroke-width:1;"/><text fill="#000000" font-family="sans-serif" font-size="14" font-weight="bold" lengthAdjust="spacing" textLength="49.8271" x="631.5864" y="82.442">Vercel</text></g><!--cluster Static Hosting--><g class="cluster" data-qualified-name="Vercel.Static Hosting" data-source-line="19" id="ent0010"><polygon fill="none" points="534,109.4469,544,99.4469,778,99.4469,778,184.7469,768,194.7469,534,194.7469,534,109.4469" style="stroke:#181818;stroke-width:1;"/><line style="stroke:#181818;stroke-width:1;" x1="768" x2="778" y1="109.4469" y2="99.4469"/><line style="stroke:#181818;stroke-width:1;" x1="534" x2="768" y1="109.4469" y2="109.4469"/><line style="stroke:#181818;stroke-width:1;" x1="768" x2="768" y1="109.4469" y2="194.7469"/><text fill="#000000" font-family="sans-serif" font-size="14" font-weight="bold" lengthAdjust="spacing" textLength="112.0342" x="595.9829" y="125.442">Static Hosting</text></g><!--cluster Python Serverless Function--><g class="cluster" data-qualified-name="Vercel.Python Serverless Function" data-source-line="22" id="ent0012"><polygon fill="none" points="510,261.8969,520,251.8969,803,251.8969,803,337.1869,793,347.1869,510,347.1869,510,261.8969" style="stroke:#181818;stroke-width:1;"/><line style="stroke:#181818;stroke-width:1;" x1="793" x2="803" y1="261.8969" y2="251.8969"/><line style="stroke:#181818;stroke-width:1;" x1="510" x2="793" y1="261.8969" y2="261.8969"/><line style="stroke:#181818;stroke-width:1;" x1="793" x2="793" y1="261.8969" y2="347.1869"/><text fill="#000000" font-family="sans-serif" font-size="14" font-weight="bold" lengthAdjust="spacing" textLength="217.2188" x="543.8906" y="277.892">Python Serverless Function</text></g><!--cluster Neon--><g class="cluster" data-qualified-name="Neon" data-source-line="27" id="ent0014"><path d="M598.899,429.9865 C601.2847,423.9837 605.2357,422.4848 610.0107,427.5983 C613.9291,421.1406 617.8422,420.8558 622.9891,426.2535 C624.7152,420.1974 628.2456,419.4091 633.0426,423.0793 C635.928,417.4249 640.7228,415.8338 644.9713,421.6633 C648.154,415.5114 652.6588,416.4162 656.4157,421.0542 C660.387,414.059 664.7486,414.1716 669.0365,420.7601 C673.8249,417.0101 677.61,417.9952 679.3632,423.9798 C682.8345,419.3747 688.6936,418.8724 691.0872,425.1418 C696.6222,419.2049 701.3277,421.6349 704.3289,427.8931 C709.2758,422.5479 712.5451,424.7347 715.511,429.9841 C721.9421,433.6835 724.4278,437.8883 717.6962,443.6868 C723.8732,446.2298 724.2401,451.9173 719.2959,455.9152 C726.1634,458.2378 727.54,464.1873 721.5942,468.7962 C727.8023,473.8407 727.5355,479.2739 720.1297,482.9054 C726.551,488.4549 725.8318,492.9898 718.1809,496.5259 C722.5063,501.9919 721.9154,507.6735 714.5762,510.0246 C711.341,514.5274 707.9596,515.7121 704.2517,510.5286 C700.1438,515.6269 693.8872,515.9364 690.8401,509.3148 C688.043,515.4163 684.1256,517.0877 679.2152,511.3982 C676.1302,516.8597 671.6882,517.1448 668.2748,511.7285 C663.9899,516.6407 659.8642,516.9316 656.088,511.1488 C653.4579,516.6107 649.0421,515.9034 646.1533,511.407 C641.3789,516.1791 636.6452,516.5099 633.6215,509.5388 C631.1942,516.102 625.9042,515.1234 622.1803,510.9163 C617.9652,517.1738 613.9876,517.1932 609.6971,510.9918 C605.5016,515.2409 601.3039,514.6848 599.0589,508.9197 C592.7228,505.6374 592.0719,501.0939 596.6709,495.8184 C589.9281,492.8239 589.0593,488.2305 594.2353,482.9757 C585.5139,480.5867 584.8123,474.8403 590.7648,468.8469 C585.4731,463.3624 585.2006,459.2067 592.8685,455.8141 C588.0314,450.9165 588.0509,444.8164 595.7098,442.6071 C591.5949,437.0829 592.3101,432.8058 598.899,429.9865" fill="none" style="stroke:#181818;stroke-width:1;"/><text fill="#000000" font-family="sans-serif" font-size="14" font-weight="bold" lengthAdjust="spacing" textLength="40.7969" x="635.6016" y="446.182">Neon</text></g><!--entity local_db--><g class="entity" data-qualified-name="Engineer Workstation.local_db" data-source-line="15" id="ent0008"><path d="M93.57,457.0469 C93.57,447.0469 151.0046,447.0469 151.0046,447.0469 C151.0046,447.0469 208.4391,447.0469 208.4391,457.0469 L208.4391,498.6406 C208.4391,508.6406 151.0046,508.6406 151.0046,508.6406 C151.0046,508.6406 93.57,508.6406 93.57,498.6406 L93.57,457.0469" fill="#F1F1F1" style="stroke:#181818;stroke-width:0.5;"/><path d="M93.57,457.0469 C93.57,467.0469 151.0046,467.0469 151.0046,467.0469 C151.0046,467.0469 208.4391,467.0469 208.4391,457.0469" fill="none" style="stroke:#181818;stroke-width:0.5;"/><text fill="#000000" font-family="sans-serif" font-size="14" lengthAdjust="spacing" textLength="45.6982" x="103.57" y="484.042">SQLite</text><text fill="#000000" font-family="sans-serif" font-size="14" lengthAdjust="spacing" textLength="94.8691" x="103.57" y="500.3389">(saastesa.db)</text></g><!--entity local_api--><g class="entity" data-qualified-name="Engineer Workstation.Python Runtime.local_api" data-source-line="7" id="ent0004"><rect fill="#F1F1F1" height="55.5938" rx="2.5" ry="2.5" style="stroke:#181818;stroke-width:0.5;" width="150.5176" x="75.74" y="283.7469"/><polygon fill="#F1F1F1" points="209.2576,288.7469,209.2576,302.7469,221.2576,302.7469,221.2576,294.7469,215.2576,288.7469,209.2576,288.7469" style="stroke:#181818;stroke-width:0.5;"/><line style="stroke:#181818;stroke-width:0.5;" x1="215.2576" x2="215.2576" y1="288.7469" y2="294.7469"/><line style="stroke:#181818;stroke-width:0.5;" x1="221.2576" x2="215.2576" y1="294.7469" y2="294.7469"/><text fill="#000000" font-family="sans-serif" font-size="14" lengthAdjust="spacing" textLength="88.1289" x="85.74" y="309.742">saastesa-api</text><text fill="#000000" font-family="sans-serif" font-size="14" lengthAdjust="spacing" textLength="120.5176" x="85.74" y="326.0389">(Uvicorn/FastAPI)</text></g><!--entity local_agent--><g class="entity" data-qualified-name="Engineer Workstation.Python Runtime.local_agent" data-source-line="8" id="ent0005"><rect fill="#F1F1F1" height="39.2969" rx="2.5" ry="2.5" style="stroke:#181818;stroke-width:0.5;" width="137.2148" x="76.39" y="139.4469"/><polygon fill="#F1F1F1" points="196.6048,144.4469,196.6048,158.4469,208.6048,158.4469,208.6048,150.4469,202.6048,144.4469,196.6048,144.4469" style="stroke:#181818;stroke-width:0.5;"/><line style="stroke:#181818;stroke-width:0.5;" x1="202.6048" x2="202.6048" y1="144.4469" y2="150.4469"/><line style="stroke:#181818;stroke-width:0.5;" x1="208.6048" x2="202.6048" y1="150.4469" y2="150.4469"/><text fill="#000000" font-family="sans-serif" font-size="14" lengthAdjust="spacing" textLength="107.2148" x="86.39" y="165.442">saastesa-agent</text></g><!--entity local_ui--><g class="entity" data-qualified-name="Engineer Workstation.Browser.local_ui" data-source-line="12" id="ent0007"><rect fill="#F1F1F1" height="55.5938" rx="2.5" ry="2.5" style="stroke:#181818;stroke-width:0.5;" width="140.0586" x="281.97" y="131.2969"/><polygon fill="#F1F1F1" points="405.0286,136.2969,405.0286,150.2969,417.0286,150.2969,417.0286,142.2969,411.0286,136.2969,405.0286,136.2969" style="stroke:#181818;stroke-width:0.5;"/><line style="stroke:#181818;stroke-width:0.5;" x1="411.0286" x2="411.0286" y1="136.2969" y2="142.2969"/><line style="stroke:#181818;stroke-width:0.5;" x1="417.0286" x2="411.0286" y1="142.2969" y2="142.2969"/><text fill="#000000" font-family="sans-serif" font-size="14" lengthAdjust="spacing" textLength="110.0586" x="291.97" y="157.292">Vite Dev Server</text><text fill="#000000" font-family="sans-serif" font-size="14" lengthAdjust="spacing" textLength="70.9092" x="291.97" y="173.5889">(frontend)</text></g><!--entity vercel_ui--><g class="entity" data-qualified-name="Vercel.Static Hosting.vercel_ui" data-source-line="20" id="ent0011"><rect fill="#F1F1F1" height="39.2969" rx="2.5" ry="2.5" style="stroke:#181818;stroke-width:0.5;" width="211.8359" x="550.08" y="139.4469"/><polygon fill="#F1F1F1" points="744.9159,144.4469,744.9159,158.4469,756.9159,158.4469,756.9159,150.4469,750.9159,144.4469,744.9159,144.4469" style="stroke:#181818;stroke-width:0.5;"/><line style="stroke:#181818;stroke-width:0.5;" x1="750.9159" x2="750.9159" y1="144.4469" y2="150.4469"/><line style="stroke:#181818;stroke-width:0.5;" x1="756.9159" x2="750.9159" y1="150.4469" y2="150.4469"/><text fill="#000000" font-family="sans-serif" font-size="14" lengthAdjust="spacing" textLength="181.8359" x="560.08" y="165.442">Dashboard (frontend/dist)</text></g><!--entity vercel_api--><g class="entity" data-qualified-name="Vercel.Python Serverless Function.vercel_api" data-source-line="23" id="ent0013"><rect fill="#F1F1F1" height="39.2969" rx="2.5" ry="2.5" style="stroke:#181818;stroke-width:0.5;" width="224.291" x="543.85" y="291.8969"/><polygon fill="#F1F1F1" points="751.141,296.8969,751.141,310.8969,763.141,310.8969,763.141,302.8969,757.141,296.8969,751.141,296.8969" style="stroke:#181818;stroke-width:0.5;"/><line style="stroke:#181818;stroke-width:0.5;" x1="757.141" x2="757.141" y1="296.8969" y2="302.8969"/><line style="stroke:#181818;stroke-width:0.5;" x1="763.141" x2="757.141" y1="302.8969" y2="302.8969"/><text fill="#000000" font-family="sans-serif" font-size="14" lengthAdjust="spacing" textLength="194.291" x="553.85" y="317.892">api/index.py -&gt; FastAPI app</text></g><!--entity neon_db--><g class="entity" data-qualified-name="Neon.neon_db" data-source-line="28" id="ent0015"><path d="M605.62,465.1869 C605.62,455.1869 655.9965,455.1869 655.9965,455.1869 C655.9965,455.1869 706.3729,455.1869 706.3729,465.1869 L706.3729,490.4838 C706.3729,500.4838 655.9965,500.4838 655.9965,500.4838 C655.9965,500.4838 605.62,500.4838 605.62,490.4838 L605.62,465.1869" fill="#F1F1F1" style="stroke:#181818;stroke-width:0.5;"/><path d="M605.62,465.1869 C605.62,475.1869 655.9965,475.1869 655.9965,475.1869 C655.9965,475.1869 706.3729,475.1869 706.3729,465.1869" fill="none" style="stroke:#181818;stroke-width:0.5;"/><text fill="#000000" font-family="sans-serif" font-size="14" lengthAdjust="spacing" textLength="80.7529" x="615.62" y="492.182">PostgreSQL</text></g><!--link local_ui to local_api--><g class="link" data-entity-1="ent0007" data-entity-2="ent0004" data-link-type="dependency" data-source-line="31" id="lnk16"><path d="M316.44,187.2169 C297.37,201.7169 273.45,219.8369 252,235.8969 C230.88,251.7069 211.9907,265.6882 192.8507,279.7882" fill="none" id="local_ui-to-local_api" style="stroke:#181818;stroke-width:1;"/><polygon fill="#181818" points="188.02,283.3469,197.6385,281.2293,192.0456,280.3813,192.8936,274.7884,188.02,283.3469" style="stroke:#181818;stroke-width:1;"/><text fill="#000000" font-family="sans-serif" font-size="13" lengthAdjust="spacing" textLength="55.4341" x="274.98" y="231.9638">/api/v1/*</text></g><!--link local_agent to local_api--><g class="link" data-entity-1="ent0005" data-entity-2="ent0004" data-link-type="dependency" data-source-line="32" id="lnk17"><path d="M145.76,179.1469 C146.81,205.4769 148.4711,247.1416 149.6711,277.2516" fill="none" id="local_agent-to-local_api" style="stroke:#181818;stroke-width:1;"/><polygon fill="#181818" points="149.91,283.2469,153.5484,274.0947,149.7109,278.2508,145.5548,274.4133,149.91,283.2469" style="stroke:#181818;stroke-width:1;"/><text fill="#000000" font-family="sans-serif" font-size="13" lengthAdjust="spacing" textLength="94.1611" x="149" y="231.9638">/api/v1/signals</text></g><!--link local_api to local_db--><g class="link" data-entity-1="ent0004" data-entity-2="ent0008" data-link-type="dependency" data-source-line="33" id="lnk18"><path d="M151,339.6769 C151,369.1169 151,409.9969 151,440.5969" fill="none" id="local_api-to-local_db" style="stroke:#181818;stroke-width:1;"/><polygon fill="#181818" points="151,446.5969,155,437.5969,151,441.5969,147,437.5969,151,446.5969" style="stroke:#181818;stroke-width:1;"/><text fill="#000000" font-family="sans-serif" font-size="13" lengthAdjust="spacing" textLength="81.9736" x="152" y="400.2538">SQLAlchemy</text></g><!--link vercel_ui to vercel_api--><g class="link" data-entity-1="ent0011" data-entity-2="ent0013" data-link-type="dependency" data-source-line="35" id="lnk19"><path d="M656,179.1469 C656,208.0869 656,256.7969 656,285.6469" fill="none" id="vercel_ui-to-vercel_api" style="stroke:#181818;stroke-width:1;"/><polygon fill="#181818" points="656,291.6469,660,282.6469,656,286.6469,652,282.6469,656,291.6469" style="stroke:#181818;stroke-width:1;"/><text fill="#000000" font-family="sans-serif" font-size="13" lengthAdjust="spacing" textLength="85.249" x="657" y="231.9638">rewrite /api/*</text></g><!--link vercel_api to neon_db--><g class="link" data-entity-1="ent0013" data-entity-2="ent0015" data-link-type="dependency" data-source-line="36" id="lnk20"><path d="M656,331.3869 C656,361.9869 656,416.3069 656,448.8269" fill="none" id="vercel_api-to-neon_db" style="stroke:#181818;stroke-width:1;"/><polygon fill="#181818" points="656,454.8269,660,445.8269,656,449.8269,652,445.8269,656,454.8269" style="stroke:#181818;stroke-width:1;"/><text fill="#000000" font-family="sans-serif" font-size="13" lengthAdjust="spacing" textLength="142.105" x="657" y="400.2538">TESA_DATABASE_URL</text></g><?plantuml-src TLDTI-j047tVNp7qwIhKS5zz42AjU44krVZn8fH9TfekRcV3xZQrYF_TITCqY-9RqpbdpiSaqKHBK20My3WlSfZ2Z1hhzXlY23E3jSUDKk7DS8Fo4y8QjTiPhc65Df1Ix3J1PCwrOI8FByw_XOZHE9x0XmBevujzN3k6Xor7iw5-0e0-cXLM4IO1CKGAECN6lFAVfzPKpdDs8__cYtzd4y00rbLebmBubLkBwHJQFGluKvryN7kt2-H_6dWsaIHw2mNvbhnuM7d7aLYdubiphDCOiSGWAulxE-4AOV1neSkKeqibZCgwhHOPyXNPj9cYAwk2MnUYjFhJs0p3kdJeDPmSPTg4s4kqXts3hszjzr4iXG0tMwx6cwJxfS_CiARtYsOFqoiuLWxODAb2N_jd4kK_3Ul6BXQIelOabHouB91Z_g4_c8h6wP9m2LbdeFsRdQlaQB-YWgbPtZirpaQaBWKeqhcjrhJPAtKgvm0QWmZCqyvt5p_iFLV9h8CUVGkk-oQMi_mnlywB-VBfuKvz0G00?></g></svg>