<?plantuml 1.2026.1?><svg xmlns="http://www.w3.org/2000/svg" xmlns:xlink="http://www.w3.org/1999/xlink" contentStyleType="text/css" data-diagram-type="CLASS" height="976px" preserveAspectRatio="none" style="width:1091px;height:976px;background:#FFFFFF;" version="1.1" viewBox="0 0 1091 976" width="1091px" zoomAndPan="magnify"><title>SaaS TESA - Domain Class Diagram</title><defs/><g><g class="title" data-source-line="1"><text fill="#000000" font-family="sans-serif" font-size="14" font-weight="bold" lengthAdjust="spacing" textLength="277.3271" x="399.8364" y="22.9951">SaaS TESA - Domain Class Diagram</text></g><!--cluster Core Domain--><g class="cluster" data-qualified-name="Core Domain" data-source-line="6" id="ent0002"><path d="M8.5,300.2969 L110.7061,300.2969 A3.75,3.75 0 0 1 113.2061,302.7969 L120.2061,322.5938 L556.5,322.5938 A2.5,2.5 0 0 1 559,325.0938 L559,848.0269 A2.5,2.5 0 0 1 556.5,850.5269 L8.5,850.5269 A2.5,2.5 0 0 1 6,848.0269 L6,302.7969 A2.5,2.5 0 0 1 8.5,300.2969" fill="none" style="stroke:#000000;stroke-width:1.5;"/><line style="stroke:#000000;stroke-width:1.5;" x1="6" x2="120.2061" y1="322.5938" y2="322.5938"/><text fill="#000000" font-family="sans-serif" font-size="14" font-weight="bold" lengthAdjust="spacing" textLength="101.2061" x="10" y="315.292">Core Domain</text></g><!--cluster API DTOs--><g class="cluster" data-qualified-name="API DTOs" data-source-line="53" id="ent0009"><path d="M85.5,43.2969 L159.084,43.2969 A3.75,3.75 0 0 1 161.584,45.7969 L168.584,65.5938 L742.5,65.5938 A2.5,2.5 0 0 1 745,68.0938 L745,248.7969 A2.5,2.5 0 0 1 742.5,251.2969 L85.5,251.2969 A2.5,2.5 0 0 1 83,248.7969 L83,45.7969 A2.5,2.5 0 0 1 85.5,43.2969" fill="none" style="stroke:#000000;stroke-width:1.5;"/><line style="stroke:#000000;stroke-width:1.5;" x1="83" x2="168.584" y1="65.5938" y2="65.5938"/><text fill="#000000" font-family="sans-serif" font-size="14" font-weight="bold" lengthAdjust="spacing" textLength="72.584" x="87" y="58.292">API DTOs</text></g><!--cluster Persistence (SQLAlchemy)--><g class="cluster" data-qualified-name="Persistence .SQLAlchemy." data-source-line="64" id="ent0017"><path d="M585.5,726.9369 L794.2578,726.9369 A3.75,3.75 0 0 1 796.7578,729.4369 L803.7578,749.2338 L1081.5,749.2338 A2.5,2.5 0 0 1 1084,751.7338 L1084,967.0269 A2.5,2.5 0 0 1 1081.5,969.5269 L585.5,969.5269 A2.5,2.5 0 0 1 583,967.0269 L583,729.4369 A2.5,2.5 0 0 1 585.5,726.9369" fill="none" style="stroke:#000000;stroke-width:1.5;"/><line style="stroke:#000000;stroke-width:1.5;" x1="583" x2="803.7578" y1="749.2338" y2="749.2338"/><text fill="#000000" font-family="sans-serif" font-size="14" font-weight="bold" lengthAdjust="spacing" textLength="207.7578" x="587" y="741.932">Persistence (SQLAlchemy)</text></g><!--class ThreatSignal--><g class="entity" data-qualified-name="Core Domain.ThreatSignal" data-source-line="7" id="ent0003"><rect fill="#F1F1F1" height="121.4844" rx="2.5" ry="2.5" style="stroke:#181818;stroke-width:0.5;" width="179.4531" x="363.27" y="433.0769"/><ellipse cx="404.6337" cy="449.0769" fill="#ADD1B2" rx="11" ry="11" style="stroke:#181818;stroke-width:1;"/><path d="M407.6024,454.7175 Q407.0243,455.0144 406.3837,455.155 Q405.743,455.3113 405.0399,455.3113 Q402.5399,455.3113 401.2118,453.6706 Q399.8993,452.0144 399.8993,448.8894 Q399.8993,445.7644 401.2118,444.1081 Q402.5399,442.4519 405.0399,442.4519 Q405.743,442.4519 406.3837,442.6081 Q407.0399,442.7644 407.6024,443.0613 L407.6024,445.78 Q406.9774,445.2019 406.3837,444.9363 Q405.7899,444.655 405.1649,444.655 Q403.8212,444.655 403.1337,445.7331 Q402.4462,446.7956 402.4462,448.8894 Q402.4462,450.9831 403.1337,452.0613 Q403.8212,453.1238 405.1649,453.1238 Q405.7899,453.1238 406.3837,452.8581 Q406.9774,452.5769 407.6024,451.9988 L407.6024,454.7175 Z " fill="#000000"/><text fill="#000000" font-family="sans-serif" font-size="14" lengthAdjust="spacing" textLength="88.8672" x="424.4923" y="453.9236">ThreatSignal</text><line style="stroke:#181818;stroke-width:0.5;" x1="364.27" x2="541.7231" y1="465.0769" y2="465.0769"/><text fill="#000000" font-family="sans-serif" font-size="14" lengthAdjust="spacing" textLength="86.2354" x="369.27" y="482.072">+source: str</text><text fill="#000000" font-family="sans-serif" font-size="14" lengthAdjust="spacing" textLength="119.123" x="369.27" y="498.3689">+signal_type: str</text><text fill="#000000" font-family="sans-serif" font-size="14" lengthAdjust="spacing" textLength="95.375" x="369.27" y="514.6657">+severity: int</text><text fill="#000000" font-family="sans-serif" font-size="14" lengthAdjust="spacing" textLength="167.4531" x="369.27" y="530.9626">+detected_at: datetime</text><text fill="#000000" font-family="sans-serif" font-size="14" lengthAdjust="spacing" textLength="114.7139" x="369.27" y="547.2595">+metadata: dict</text></g><!--class SecurityFinding--><g class="entity" data-qualified-name="Core Domain.SecurityFinding" data-source-line="15" id="ent0004"><rect fill="#F1F1F1" height="317.0469" rx="2.5" ry="2.5" style="stroke:#181818;stroke-width:0.5;" width="306.0752" x="21.96" y="335.2969"/><ellipse cx="116.3267" cy="351.2969" fill="#ADD1B2" rx="11" ry="11" style="stroke:#181818;stroke-width:1;"/><path d="M119.2954,356.9375 Q118.7173,357.2344 118.0767,357.375 Q117.4361,357.5313 116.7329,357.5313 Q114.2329,357.5313 112.9048,355.8906 Q111.5923,354.2344 111.5923,351.1094 Q111.5923,347.9844 112.9048,346.3281 Q114.2329,344.6719 116.7329,344.6719 Q117.4361,344.6719 118.0767,344.8281 Q118.7329,344.9844 119.2954,345.2813 L119.2954,348 Q118.6704,347.4219 118.0767,347.1563 Q117.4829,346.875 116.8579,346.875 Q115.5142,346.875 114.8267,347.9531 Q114.1392,349.0156 114.1392,351.1094 Q114.1392,353.2031 114.8267,354.2813 Q115.5142,355.3438 116.8579,355.3438 Q117.4829,355.3438 118.0767,355.0781 Q118.6704,354.7969 119.2954,354.2188 L119.2954,356.9375 Z " fill="#000000"/><text fill="#000000" font-family="sans-serif" font-size="14" lengthAdjust="spacing" textLength="108.8418" x="136.8267" y="356.1436">SecurityFinding</text><line style="stroke:#181818;stroke-width:0.5;" x1="22.96" x2="327.0352" y1="367.2969" y2="367.2969"/><text fill="#000000" font-family="sans-serif" font-size="14" lengthAdjust="spacing" textLength="116.3135" x="27.96" y="384.292">+finding_uid: str</text><text fill="#000000" font-family="sans-serif" font-size="14" lengthAdjust="spacing" textLength="198.5293" x="27.96" y="400.5889">+standard: FindingStandard</text><text fill="#000000" font-family="sans-serif" font-size="14" lengthAdjust="spacing" textLength="294.0752" x="27.96" y="416.8857">+schema_version: FindingSchemaVersion</text><text fill="#000000" font-family="sans-serif" font-size="14" lengthAdjust="spacing" textLength="159.8789" x="27.96" y="433.1826">+status: FindingStatus</text><text fill="#000000" font-family="sans-serif" font-size="14" lengthAdjust="spacing" textLength="115.1514" x="27.96" y="449.4795">+severity_id: int</text><text fill="#000000" font-family="sans-serif" font-size="14" lengthAdjust="spacing" textLength="186.293" x="27.96" y="465.7764">+severity: FindingSeverity</text><text fill="#000000" font-family="sans-serif" font-size="14" lengthAdjust="spacing" textLength="109.1221" x="27.96" y="482.0732">+risk_score: int</text><text fill="#000000" font-family="sans-serif" font-size="14" lengthAdjust="spacing" textLength="66.8076" x="27.96" y="498.3701">+title: str</text><text fill="#000000" font-family="sans-serif" font-size="14" lengthAdjust="spacing" textLength="117.2773" x="27.96" y="514.667">+description: str</text><text fill="#000000" font-family="sans-serif" font-size="14" lengthAdjust="spacing" textLength="148.0117" x="27.96" y="530.9639">+category_name: str</text><text fill="#000000" font-family="sans-serif" font-size="14" lengthAdjust="spacing" textLength="190.5381" x="27.96" y="547.2607">+class_name: FindingClass</text><text fill="#000000" font-family="sans-serif" font-size="14" lengthAdjust="spacing" textLength="117.4141" x="27.96" y="563.5576">+type_name: str</text><text fill="#000000" font-family="sans-serif" font-size="14" lengthAdjust="spacing" textLength="179.0059" x="27.96" y="579.8545">+domain: FindingDomain</text><text fill="#000000" font-family="sans-serif" font-size="14" lengthAdjust="spacing" textLength="223.1592" x="27.96" y="596.1514">+activity_name: FindingActivity</text><text fill="#000000" font-family="sans-serif" font-size="14" lengthAdjust="spacing" textLength="115.7256" x="27.96" y="612.4482">+time: datetime</text><text fill="#000000" font-family="sans-serif" font-size="14" lengthAdjust="spacing" textLength="86.2354" x="27.96" y="628.7451">+source: str</text><text fill="#000000" font-family="sans-serif" font-size="14" lengthAdjust="spacing" textLength="111.1797" x="27.96" y="645.042">+raw_data: dict</text></g><!--class FindingResource--><g class="entity" data-qualified-name="Core Domain.FindingResource" data-source-line="35" id="ent0005"><rect fill="#F1F1F1" height="105.1875" rx="2.5" ry="2.5" style="stroke:#181818;stroke-width:0.5;" width="148.4912" x="60.75" y="729.3369"/><ellipse cx="75.75" cy="745.3369" fill="#ADD1B2" rx="11" ry="11" style="stroke:#181818;stroke-width:1;"/><path d="M78.7188,750.9775 Q78.1406,751.2744 77.5,751.415 Q76.8594,751.5713 76.1563,751.5713 Q73.6563,751.5713 72.3281,749.9306 Q71.0156,748.2744 71.0156,745.1494 Q71.0156,742.0244 72.3281,740.3681 Q73.6563,738.7119 76.1563,738.7119 Q76.8594,738.7119 77.5,738.8681 Q78.1563,739.0244 78.7188,739.3213 L78.7188,742.04 Q78.0938,741.4619 77.5,741.1963 Q76.9063,740.915 76.2813,740.915 Q74.9375,740.915 74.25,741.9931 Q73.5625,743.0556 73.5625,745.1494 Q73.5625,747.2431 74.25,748.3213 Q74.9375,749.3838 76.2813,749.3838 Q76.9063,749.3838 77.5,749.1181 Q78.0938,748.8369 78.7188,748.2588 L78.7188,750.9775 Z " fill="#000000"/><text fill="#000000" font-family="sans-serif" font-size="14" lengthAdjust="spacing" textLength="116.4912" x="89.75" y="750.1836">FindingResource</text><line style="stroke:#181818;stroke-width:0.5;" x1="61.75" x2="208.2412" y1="761.3369" y2="761.3369"/><text fill="#000000" font-family="sans-serif" font-size="14" lengthAdjust="spacing" textLength="61.0859" x="66.75" y="778.332">+uid: str</text><text fill="#000000" font-family="sans-serif" font-size="14" lengthAdjust="spacing" textLength="79.1396" x="66.75" y="794.6289">+name: str</text><text fill="#000000" font-family="sans-serif" font-size="14" lengthAdjust="spacing" textLength="70.7109" x="66.75" y="810.9257">+type: str</text><text fill="#000000" font-family="sans-serif" font-size="14" lengthAdjust="spacing" textLength="99.1689" x="66.75" y="827.2226">+platform: str</text></g><!--class FindingReferences--><g class="entity" data-qualified-name="Core Domain.FindingReferences" data-source-line="42" id="ent0006"><rect fill="#F1F1F1" height="105.1875" rx="2.5" ry="2.5" style="stroke:#181818;stroke-width:0.5;" width="186.4395" x="243.78" y="729.3369"/><ellipse cx="269.7413" cy="745.3369" fill="#ADD1B2" rx="11" ry="11" style="stroke:#181818;stroke-width:1;"/><path d="M272.71,750.9775 Q272.1319,751.2744 271.4913,751.415 Q270.8507,751.5713 270.1475,751.5713 Q267.6475,751.5713 266.3194,749.9306 Q265.0069,748.2744 265.0069,745.1494 Q265.0069,742.0244 266.3194,740.3681 Q267.6475,738.7119 270.1475,738.7119 Q270.8507,738.7119 271.4913,738.8681 Q272.1475,739.0244 272.71,739.3213 L272.71,742.04 Q272.085,741.4619 271.4913,741.1963 Q270.8975,740.915 270.2725,740.915 Q268.9288,740.915 268.2413,741.9931 Q267.5538,743.0556 267.5538,745.1494 Q267.5538,747.2431 268.2413,748.3213 Q268.9288,749.3838 270.2725,749.3838 Q270.8975,749.3838 271.4913,749.1181 Q272.085,748.8369 272.71,748.2588 L272.71,750.9775 Z " fill="#000000"/><text fill="#000000" font-family="sans-serif" font-size="14" lengthAdjust="spacing" textLength="130.0811" x="286.1771" y="750.1836">FindingReferences</text><line style="stroke:#181818;stroke-width:0.5;" x1="244.78" x2="429.2195" y1="761.3369" y2="761.3369"/><text fill="#000000" font-family="sans-serif" font-size="14" lengthAdjust="spacing" textLength="110.708" x="249.78" y="778.332">+cve: tuple[str]</text><text fill="#000000" font-family="sans-serif" font-size="14" lengthAdjust="spacing" textLength="113.873" x="249.78" y="794.6289">+cwe: tuple[str]</text><text fill="#000000" font-family="sans-serif" font-size="14" lengthAdjust="spacing" textLength="130.8877" x="249.78" y="810.9257">+owasp: tuple[str]</text><text fill="#000000" font-family="sans-serif" font-size="14" lengthAdjust="spacing" textLength="174.4395" x="249.78" y="827.2226">+mitre_attack: tuple[str]</text></g><!--class ThreatSignalIn--><g class="entity" data-qualified-name="API DTOs.ThreatSignalIn" data-source-line="54" id="ent0010"><rect fill="#F1F1F1" height="40" rx="2.5" ry="2.5" style="stroke:#181818;stroke-width:0.5;" width="133.8691" x="380.07" y="195.2969"/><ellipse cx="395.07" cy="211.2969" fill="#ADD1B2" rx="11" ry="11" style="stroke:#181818;stroke-width:1;"/><path d="M398.0388,216.9375 Q397.4606,217.2344 396.82,217.375 Q396.1794,217.5313 395.4763,217.5313 Q392.9763,217.5313 391.6481,215.8906 Q390.3356,214.2344 390.3356,211.1094 Q390.3356,207.9844 391.6481,206.3281 Q392.9763,204.6719 395.4763,204.6719 Q396.1794,204.6719 396.82,204.8281 Q397.4763,204.9844 398.0388,205.2813 L398.0388,208 Q397.4138,207.4219 396.82,207.1563 Q396.2263,206.875 395.6013,206.875 Q394.2575,206.875 393.57,207.9531 Q392.8825,209.0156 392.8825,211.1094 Q392.8825,213.2031 393.57,214.2813 Q394.2575,215.3438 395.6013,215.3438 Q396.2263,215.3438 396.82,215.0781 Q397.4138,214.7969 398.0388,214.2188 L398.0388,216.9375 Z " fill="#000000"/><text fill="#000000" font-family="sans-serif" font-size="14" lengthAdjust="spacing" textLength="101.8691" x="409.07" y="216.1436">ThreatSignalIn</text><line style="stroke:#181818;stroke-width:0.5;" x1="381.07" x2="512.9391" y1="227.2969" y2="227.2969"/></g><!--class SecurityFindingOut--><g class="entity" data-qualified-name="API DTOs.SecurityFindingOut" data-source-line="55" id="ent0011"><rect fill="#F1F1F1" height="40" rx="2.5" ry="2.5" style="stroke:#181818;stroke-width:0.5;" width="166.2236" x="102.89" y="195.2969"/><ellipse cx="117.89" cy="211.2969" fill="#ADD1B2" rx="11" ry="11" style="stroke:#181818;stroke-width:1;"/><path d="M120.8588,216.9375 Q120.2806,217.2344 119.64,217.375 Q118.9994,217.5313 118.2963,217.5313 Q115.7963,217.5313 114.4681,215.8906 Q113.1556,214.2344 113.1556,211.1094 Q113.1556,207.9844 114.4681,206.3281 Q115.7963,204.6719 118.2963,204.6719 Q118.9994,204.6719 119.64,204.8281 Q120.2963,204.9844 120.8588,205.2813 L120.8588,208 Q120.2338,207.4219 119.64,207.1563 Q119.0463,206.875 118.4213,206.875 Q117.0775,206.875 116.39,207.9531 Q115.7025,209.0156 115.7025,211.1094 Q115.7025,213.2031 116.39,214.2813 Q117.0775,215.3438 118.4213,215.3438 Q119.0463,215.3438 119.64,215.0781 Q120.2338,214.7969 120.8588,214.2188 L120.8588,216.9375 Z " fill="#000000"/><text fill="#000000" font-family="sans-serif" font-size="14" lengthAdjust="spacing" textLength="134.2236" x="131.89" y="216.1436">SecurityFindingOut</text><line style="stroke:#181818;stroke-width:0.5;" x1="103.89" x2="268.1136" y1="227.2969" y2="227.2969"/></g><!--class IngestSignalsRequest--><g class="entity" data-qualified-name="API DTOs.IngestSignalsRequest" data-source-line="56" id="ent0012"><rect fill="#F1F1F1" height="40" rx="2.5" ry="2.5" style="stroke:#181818;stroke-width:0.5;" width="183.0811" x="327.46" y="78.2969"/><ellipse cx="342.46" cy="94.2969" fill="#ADD1B2" rx="11" ry="11" style="stroke:#181818;stroke-width:1;"/><path d="M345.4288,99.9375 Q344.8506,100.2344 344.21,100.375 Q343.5694,100.5313 342.8663,100.5313 Q340.3663,100.5313 339.0381,98.8906 Q337.7256,97.2344 337.7256,94.1094 Q337.7256,90.9844 339.0381,89.3281 Q340.3663,87.6719 342.8663,87.6719 Q343.5694,87.6719 344.21,87.8281 Q344.8663,87.9844 345.4288,88.2813 L345.4288,91 Q344.8038,90.4219 344.21,90.1563 Q343.6163,89.875 342.9913,89.875 Q341.6475,89.875 340.96,90.9531 Q340.2725,92.0156 340.2725,94.1094 Q340.2725,96.2031 340.96,97.2813 Q341.6475,98.3438 342.9913,98.3438 Q343.6163,98.3438 344.21,98.0781 Q344.8038,97.7969 345.4288,97.2188 L345.4288,99.9375 Z " fill="#000000"/><text fill="#000000" font-family="sans-serif" font-size="14" lengthAdjust="spacing" textLength="151.0811" x="356.46" y="99.1436">IngestSignalsRequest</text><line style="stroke:#181818;stroke-width:0.5;" x1="328.46" x2="509.5411" y1="110.2969" y2="110.2969"/></g><!--class IngestSignalsResponse--><g class="entity" data-qualified-name="API DTOs.IngestSignalsResponse" data-source-line="57" id="ent0013"><rect fill="#F1F1F1" height="40" rx="2.5" ry="2.5" style="stroke:#181818;stroke-width:0.5;" width="193.4512" x="99.27" y="78.2969"/><ellipse cx="114.27" cy="94.2969" fill="#ADD1B2" rx="11" ry="11" style="stroke:#181818;stroke-width:1;"/><path d="M117.2388,99.9375 Q116.6606,100.2344 116.02,100.375 Q115.3794,100.5313 114.6763,100.5313 Q112.1763,100.5313 110.8481,98.8906 Q109.5356,97.2344 109.5356,94.1094 Q109.5356,90.9844 110.8481,89.3281 Q112.1763,87.6719 114.6763,87.6719 Q115.3794,87.6719 116.02,87.8281 Q116.6763,87.9844 117.2388,88.2813 L117.2388,91 Q116.6138,90.4219 116.02,90.1563 Q115.4263,89.875 114.8013,89.875 Q113.4575,89.875 112.77,90.9531 Q112.0825,92.0156 112.0825,94.1094 Q112.0825,96.2031 112.77,97.2813 Q113.4575,98.3438 114.8013,98.3438 Q115.4263,98.3438 116.02,98.0781 Q116.6138,97.7969 117.2388,97.2188 L117.2388,99.9375 Z " fill="#000000"/><text fill="#000000" font-family="sans-serif" font-size="14" lengthAdjust="spacing" textLength="161.4512" x="128.27" y="99.1436">IngestSignalsResponse</text><line style="stroke:#181818;stroke-width:0.5;" x1="100.27" x2="291.7212" y1="110.2969" y2="110.2969"/></g><!--class FindingsSummaryOut--><g class="entity" data-qualified-name="API DTOs.FindingsSummaryOut" data-source-line="58" id="ent0014"><rect fill="#F1F1F1" height="40" rx="2.5" ry="2.5" style="stroke:#181818;stroke-width:0.5;" width="183.6826" x="545.16" y="78.2969"/><ellipse cx="560.16" cy="94.2969" fill="#ADD1B2" rx="11" ry="11" style="stroke:#181818;stroke-width:1;"/><path d="M563.1288,99.9375 Q562.5506,100.2344 561.91,100.375 Q561.2694,100.5313 560.5663,100.5313 Q558.0663,100.5313 556.7381,98.8906 Q555.4256,97.2344 555.4256,94.1094 Q555.4256,90.9844 556.7381,89.3281 Q558.0663,87.6719 560.5663,87.6719 Q561.2694,87.6719 561.91,87.8281 Q562.5663,87.9844 563.1288,88.2813 L563.1288,91 Q562.5038,90.4219 561.91,90.1563 Q561.3163,89.875 560.6913,89.875 Q559.3475,89.875 558.66,90.9531 Q557.9725,92.0156 557.9725,94.1094 Q557.9725,96.2031 558.66,97.2813 Q559.3475,98.3438 560.6913,98.3438 Q561.3163,98.3438 561.91,98.0781 Q562.5038,97.7969 563.1288,97.2188 L563.1288,99.9375 Z " fill="#000000"/><text fill="#000000" font-family="sans-serif" font-size="14" lengthAdjust="spacing" textLength="151.6826" x="574.16" y="99.1436">FindingsSummaryOut</text><line style="stroke:#181818;stroke-width:0.5;" x1="546.16" x2="727.8426" y1="110.2969" y2="110.2969"/></g><!--class FindingResourceRecord--><g class="entity" data-qualified-name="Persistence .SQLAlchemy..FindingResourceRecord" data-source-line="65" id="ent0018"><rect fill="#F1F1F1" height="40" rx="2.5" ry="2.5" style="stroke:#181818;stroke-width:0.5;" width="197.7373" x="599.13" y="913.5269"/><ellipse cx="614.13" cy="929.5269" fill="#ADD1B2" rx="11" ry="11" style="stroke:#181818;stroke-width:1;"/><path d="M617.0988,935.1675 Q616.5206,935.4644 615.88,935.605 Q615.2394,935.7613 614.5363,935.7613 Q612.0363,935.7613 610.7081,934.1206 Q609.3956,932.4644 609.3956,929.3394 Q609.3956,926.2144 610.7081,924.5581 Q612.0363,922.9019 614.5363,922.9019 Q615.2394,922.9019 615.88,923.0581 Q616.5363,923.2144 617.0988,923.5113 L617.0988,926.23 Q616.4738,925.6519 615.88,925.3863 Q615.2863,925.105 614.6613,925.105 Q613.3175,925.105 612.63,926.1831 Q611.9425,927.2456 611.9425,929.3394 Q611.9425,931.4331 612.63,932.5113 Q613.3175,933.5738 614.6613,933.5738 Q615.2863,933.5738 615.88,933.3081 Q616.4738,933.0269 617.0988,932.4488 L617.0988,935.1675 Z " fill="#000000"/><text fill="#000000" font-family="sans-serif" font-size="14" lengthAdjust="spacing" textLength="165.7373" x="628.13" y="934.3736">FindingResourceRecord</text><line style="stroke:#181818;stroke-width:0.5;" x1="600.13" x2="795.8673" y1="945.5269" y2="945.5269"/></g><!--class SecurityFindingRecord--><g class="entity" data-qualified-name="Persistence .SQLAlchemy..SecurityFindingRecord" data-source-line="66" id="ent0019"><rect fill="#F1F1F1" height="40" rx="2.5" ry="2.5" style="stroke:#181818;stroke-width:0.5;" width="190.0879" x="602.96" y="761.9369"/><ellipse cx="617.96" cy="777.9369" fill="#ADD1B2" rx="11" ry="11" style="stroke:#181818;stroke-width:1;"/><path d="M620.9288,783.5775 Q620.3506,783.8744 619.71,784.015 Q619.0694,784.1713 618.3663,784.1713 Q615.8663,784.1713 614.5381,782.5306 Q613.2256,780.8744 613.2256,777.7494 Q613.2256,774.6244 614.5381,772.9681 Q615.8663,771.3119 618.3663,771.3119 Q619.0694,771.3119 619.71,771.4681 Q620.3663,771.6244 620.9288,771.9213 L620.9288,774.64 Q620.3038,774.0619 619.71,773.7963 Q619.1163,773.515 618.4913,773.515 Q617.1475,773.515 616.46,774.5931 Q615.7725,775.6556 615.7725,777.7494 Q615.7725,779.8431 616.46,780.9213 Q617.1475,781.9838 618.4913,781.9838 Q619.1163,781.9838 619.71,781.7181 Q620.3038,781.4369 620.9288,780.8588 L620.9288,783.5775 Z " fill="#000000"/><text fill="#000000" font-family="sans-serif" font-size="14" lengthAdjust="spacing" textLength="158.0879" x="631.96" y="782.7836">SecurityFindingRecord</text><line style="stroke:#181818;stroke-width:0.5;" x1="603.96" x2="792.0479" y1="793.9369" y2="793.9369"/></g><!--class FindingReferenceItemRecord--><g class="entity" data-qualified-name="Persistence .SQLAlchemy..FindingReferenceItemRecord" data-source-line="67" id="ent0020"><rect fill="#F1F1F1" height="40" rx="2.5" ry="2.5" style="stroke:#181818;stroke-width:0.5;" width="235.9023" x="832.05" y="913.5269"/><ellipse cx="847.05" cy="929.5269" fill="#ADD1B2" rx="11" ry="11" style="stroke:#181818;stroke-width:1;"/><path d="M850.0188,935.1675 Q849.4406,935.4644 848.8,935.605 Q848.1594,935.7613 847.4563,935.7613 Q844.9563,935.7613 843.6281,934.1206 Q842.3156,932.4644 842.3156,929.3394 Q842.3156,926.2144 843.6281,924.5581 Q844.9563,922.9019 847.4563,922.9019 Q848.1594,922.9019 848.8,923.0581 Q849.4563,923.2144 850.0188,923.5113 L850.0188,926.23 Q849.3938,925.6519 848.8,925.3863 Q848.2063,925.105 847.5813,925.105 Q846.2375,925.105 845.55,926.1831 Q844.8625,927.2456 844.8625,929.3394 Q844.8625,931.4331 845.55,932.5113 Q846.2375,933.5738 847.5813,933.5738 Q848.2063,933.5738 848.8,933.3081 Q849.3938,933.0269 850.0188,932.4488 L850.0188,935.1675 Z " fill="#000000"/><text fill="#000000" font-family="sans-serif" font-size="14" lengthAdjust="spacing" textLength="203.9023" x="861.05" y="934.3736">FindingReferenceItemRecord</text><line style="stroke:#181818;stroke-width:0.5;" x1="833.05" x2="1066.9523" y1="945.5269" y2="945.5269"/></g><!--reverse link SecurityFinding to FindingResource--><g class="link" data-entity-1="ent0004" data-entity-2="ent0005" data-link-type="composition" data-source-line="49" id="lnk7"><path codeLine="49" d="M151.2879,664.4012 C147.4279,692.0012 145.34,706.9769 142.27,728.9369" fill="none" id="SecurityFinding-backto-FindingResource" style="stroke:#181818;stroke-width:1;"/><polygon fill="#181818" points="152.95,652.5169,148.1575,657.905,151.2879,664.4012,156.0804,659.0131,152.95,652.5169" style="stroke:#181818;stroke-width:1;"/><text fill="#000000" font-family="sans-serif" font-size="13" lengthAdjust="spacing" textLength="56.7988" x="148.94" y="695.4038">resource</text></g><!--reverse link SecurityFinding to FindingReferences--><g class="link" data-entity-1="ent0004" data-entity-2="ent0006" data-link-type="composition" data-source-line="50" id="lnk8"><path codeLine="50" d="M270.2033,662.9588 C285.8333,690.5588 295.12,706.9769 307.56,728.9369" fill="none" id="SecurityFinding-backto-FindingReferences" style="stroke:#181818;stroke-width:1;"/><polygon fill="#181818" points="264.29,652.5169,263.766,659.7089,270.2033,662.9588,270.7273,655.7667,264.29,652.5169" style="stroke:#181818;stroke-width:1;"/><text fill="#000000" font-family="sans-serif" font-size="13" lengthAdjust="spacing" textLength="69.418" x="290.13" y="695.4038">references</text></g><!--reverse link IngestSignalsRequest to ThreatSignalIn--><g class="link" data-entity-1="ent0012" data-entity-2="ent0010" data-link-type="composition" data-source-line="60" id="lnk15"><path codeLine="60" d="M426.5293,130.1961 C431.6993,151.4261 437.12,173.7269 442.3,194.9769" fill="none" id="IngestSignalsRequest-backto-ThreatSignalIn" style="stroke:#181818;stroke-width:1;"/><polygon fill="#181818" points="423.69,118.5369,421.2232,125.3129,426.5293,130.1961,428.9961,123.4201,423.69,118.5369" style="stroke:#181818;stroke-width:1;"/><text fill="#000000" font-family="sans-serif" font-size="13" lengthAdjust="spacing" textLength="45.2271" x="435.68" y="161.3638">signals</text></g><!--reverse link IngestSignalsResponse to SecurityFindingOut--><g class="link" data-entity-1="ent0013" data-entity-2="ent0011" data-link-type="composition" data-source-line="61" id="lnk16"><path codeLine="61" d="M193.2883,130.4916 C191.4383,151.7216 189.53,173.7269 187.68,194.9769" fill="none" id="IngestSignalsResponse-backto-SecurityFindingOut" style="stroke:#181818;stroke-width:1;"/><polygon fill="#181818" points="194.33,118.5369,189.8242,124.167,193.2883,130.4916,197.794,124.8615,194.33,118.5369" style="stroke:#181818;stroke-width:1;"/><text fill="#000000" font-family="sans-serif" font-size="13" lengthAdjust="spacing" textLength="51.5557" x="192.6" y="161.3638">findings</text></g><!--link SecurityFindingRecord to FindingResourceRecord--><g class="link" data-entity-1="ent0019" data-entity-2="ent0018" data-link-type="dependency" data-source-line="69" id="lnk21"><path codeLine="69" d="M698,802.1869 C698,830.9069 698,878.6669 698,907.3469" fill="none" id="SecurityFindingRecord-to-FindingResourceRecord" style="stroke:#181818;stroke-width:1;"/><polygon fill="#181818" points="698,913.3469,702,904.3469,698,908.3469,694,904.3469,698,913.3469" style="stroke:#181818;stroke-width:1;"/><text fill="#000000" font-family="sans-serif" font-size="13" lengthAdjust="spacing" textLength="75.1626" x="699" y="879.5938">resource_id</text></g><!--reverse link SecurityFindingRecord to FindingReferenceItemRecord--><g class="link" data-entity-1="ent0019" data-entity-2="ent0020" data-link-type="composition" data-source-line="70" id="lnk22"><path codeLine="70" d="M741.0084,808.463 C789.3484,837.163 869.06,884.4769 917.37,913.1569" fill="none" id="SecurityFindingRecord-backto-FindingReferenceItemRecord" style="stroke:#181818;stroke-width:1;"/><polygon fill="#181818" points="730.69,802.3369,733.8072,808.8394,741.0084,808.463,737.8913,801.9605,730.69,802.3369" style="stroke:#181818;stroke-width:1;"/><text fill="#000000" font-family="sans-serif" font-size="13" lengthAdjust="spacing" textLength="105.2886" x="862.3" y="879.5938">reference_items</text><text fill="#000000" font-family="sans-serif" font-size="13" lengthAdjust="spacing" textLength="23.0356" x="881.9631" y="902.404">0..*</text></g><!--link ThreatSignalIn to ThreatSignal--><g class="link" data-entity-1="ent0010" data-entity-2="ent0003" data-link-type="dependency" data-source-line="73" id="lnk23"><path codeLine="73" d="M447.42,235.7369 C448.3,276.0569 450.2094,364.2283 451.5694,426.6983" fill="none" id="ThreatSignalIn-to-ThreatSignal" style="stroke:#181818;stroke-width:1;stroke-dasharray:7,7;"/><polygon fill="#181818" points="451.7,432.6969,455.5032,423.6119,451.5912,427.6981,447.5051,423.7861,451.7,432.6969" style="stroke:#181818;stroke-width:1;"/><text fill="#000000" font-family="sans-serif" font-size="13" lengthAdjust="spacing" textLength="70.5669" x="449.45" y="280.3638">mapped to</text></g><!--link SecurityFinding to SecurityFindingOut--><g class="link" data-entity-1="ent0004" data-entity-2="ent0011" data-link-type="dependency" data-source-line="74" id="lnk24"><path codeLine="74" d="M181.28,334.9469 C182.86,295.1469 184.121,263.5521 184.991,241.7321" fill="none" id="SecurityFinding-to-SecurityFindingOut" style="stroke:#181818;stroke-width:1;stroke-dasharray:7,7;"/><polygon fill="#181818" points="185.23,235.7369,180.8746,244.5704,185.0308,240.7329,188.8683,244.8891,185.23,235.7369" style="stroke:#181818;stroke-width:1;"/><text fill="#000000" font-family="sans-serif" font-size="13" lengthAdjust="spacing" textLength="105.4854" x="184.9" y="280.3638">mapped to/from</text></g><!--link SecurityFinding to SecurityFindingRecord--><g class="link" data-entity-1="ent0004" data-entity-2="ent0019" data-link-type="dependency" data-source-line="75" id="lnk25"><path codeLine="75" d="M328.3,641.3769 C334.15,645.2369 340.06,648.9069 346,652.3369 C431.89,701.9369 466.22,683.8769 559,718.9369 C592.86,731.7269 624.8594,746.0356 652.3394,758.9456" fill="none" id="SecurityFinding-to-SecurityFindingRecord" style="stroke:#181818;stroke-width:1;stroke-dasharray:7,7;"/><polygon fill="#181818" points="657.77,761.4969,651.325,754.0496,653.2445,759.3708,647.9233,761.2904,657.77,761.4969" style="stroke:#181818;stroke-width:1;"/><text fill="#000000" font-family="sans-serif" font-size="13" lengthAdjust="spacing" textLength="78.9712" x="493.4" y="695.4038">persisted as</text></g><?plantuml-src ZLHDZzem4BtdLumujLj1zynX9RIq4bAbtHBKIrL5i_O05jX9xGc8LllVQoTEDX_GzXQ_Ds--9wpuI90Yfh3vb2vW2ijSepBmU4JdOAbmPr4doLv90j85Nq0JxtFf4dTGfa3FWWYs2sQhNagcbSXDgduHt2T9WUA0EuB9Osufkfx0xmHg3Mpsbf1JjJDuh6203oulhQ0vEBOHgEYCBqKFfHDPnPSvACCr98b9CCaCUGuIcLXfgYcVD7e4FQv4C7zDsYHI4cNmz5aPgSokoMDRFxDIoMvOHYFHUYYQfn68jDYJniodvbHktemg-5kDjewuT5qt_jalBGkHs-hU2cua4QXfgzmXSyBtkQFXCDvEzfASiAhWAhSM5RvLkznUCeEwQrsr9u8nPhKMqRUVnr0XgmctrlN0Qme5grCegkTl4T4ctK3r9pTQ1uldxDOeezSrrQfcbFqH3d8Ux5LnHDxcLZVGDUzRicG4kSQ_E7aFN1P7-kv5Fo9ulWBcPtJ56DQABVcrPNyl0xQAFrpHk-bqLEiSRFpybw1DFqYQH_BQETV5ymgMcoTtwrPNvjRrF9NSKYkp8nSLRaq_I_-wHReYDuw6hNPfgJNQI_3gkMiEgzBwkVcwwd-66slgE9LedBaNngllj-Cv7AxZq2TubtxziZY6UxwyxxPdC8ur-LEKjxeqO8UJMJ7fQ3AUPKt0TFfmFMPd4VmFvAO-T61oFvlTJVuIlhiXcV9mrPT1jsUpX_wFV0uQYu8aS9uC5p4ONsryA_cujRd-7rsROX778m5TyWS0?></g></svg>