<svg xmlns="http://www.w3.org/2000/svg" viewBox="0 0 64 64" role="img" aria-label="SaaS TESA">
  <defs>
    <linearGradient id="bg" x1="0" y1="0" x2="1" y2="1">
      <stop offset="0%" stop-color="#0f4c81"/>
      <stop offset="100%" stop-color="#1b0066"/>
    </linearGradient>
    <linearGradient id="shield" x1="0" y1="0" x2="0" y2="1">
      <stop offset="0%" stop-color="#48b6ff"/>
      <stop offset="100%" stop-color="#8f6bff"/>
    </linearGradient>
  </defs>

  <rect width="64" height="64" rx="14" fill="url(#bg)"/>

  <path d="M32 10 49 17v14c0 11-8 19-17 23C23 50 15 42 15 31V17z" fill="url(#shield)"/>
  <path d="M32 16 43 21v10c0 8-5.5 14-11 17-5.5-3-11-9-11-17V21z" fill="#0f1a3a" opacity="0.55"/>

  <path d="M24 30h16" stroke="#9fe3ff" stroke-width="2.5" stroke-linecap="round"/>
  <path d="M27 25c2-2 8-2 10 0" stroke="#9fe3ff" stroke-width="2" fill="none" stroke-linecap="round"/>
  <path d="M27 35c2 2 8 2 10 0" stroke="#9fe3ff" stroke-width="2" fill="none" stroke-linecap="round"/>

  <path d="M32 23v18" stroke="#ffffff" stroke-width="3" stroke-linecap="round"/>
  <path d="M27 23h10" stroke="#ffffff" stroke-width="3" stroke-linecap="round"/>
</svg>
