<svg xmlns="http://www.w3.org/2000/svg" viewBox="0 0 120 120" role="img" aria-label="SaaS TESA mascot">
  <rect width="120" height="120" rx="18" fill="#e71313"/>

  <path d="M64 15c20 0 35 14 39 35 3 15 1 30-5 43-4 10-12 17-21 22-11 6-25 8-39 5-8-2-16-6-22-12-5-6-8-14-9-22-2-14 2-29 12-40 6-7 13-12 21-17 8-4 16-6 24-6z" fill="#070707" stroke="#f3f3f3" stroke-width="3"/>

  <path d="M44 55c-6 0-10 5-10 11 0 6 4 11 10 11 5 0 9-3 10-8-1-4-3-8-6-11-1-2-2-3-4-3z" fill="#ececec"/>
  <path d="M76 55c-6 0-10 5-10 11 0 6 4 11 10 11 5 0 9-3 10-8-1-4-3-8-6-11-1-2-2-3-4-3z" fill="#ececec"/>

  <ellipse cx="48" cy="61" rx="2" ry="2.4" fill="#ffffff"/>
  <ellipse cx="80" cy="61" rx="2" ry="2.4" fill="#ffffff"/>

  <path d="M45 70c8-5 22-5 30 0 4 3 6 7 5 11-1 4-5 7-10 9-8 2-18 2-26 0-5-2-9-5-10-9-1-4 1-8 5-11z" fill="#f2ee00"/>
  <ellipse cx="60" cy="74" rx="2.2" ry="1.8" fill="#070707"/>
  <path d="M46 88c4 2 10 3 16 2 6-1 11-3 14-6-9 0-20 0-30 4z" fill="#f2ee00"/>

  <polygon points="60,24 63,30 70,30 64,34 66,40 60,36 54,40 56,34 50,30 57,30" fill="#ff1a1a"/>
</svg>
